# xmcd
#
# Track frame offsets:
#	150
#	5440
#	29400
#	50475
#	78670
#	99135
#	126760
#	153845
#	160925
#	188010
#
# Disc length: 2892 seconds
#
# Revision: 2
# Processed by: cddbd v1.5.1PL2 Copyright (c) Steve Scherf et al.
# Submitted via: EasyCDDAExtractor 8.0.2.1
#
DISCID=6e0b4a0a
DTITLE=Black Sabbath - Newport Music Hall Columbus 03-07-95 Disc 1
DYEAR=1995
DGENRE=Hard Rock
TTITLE0=Ave Satani - Gates Of Hell
TTITLE1=Children Of The Grave
TTITLE2=Neon Knights
TTITLE3=The Shining
TTITLE4=The Wizard
TTITLE5=Get A Grip
TTITLE6=Headless Cross
TTITLE7=Guitar Solo
TTITLE8=Rusty Angels
TTITLE9=When Death Calls
EXTD=
EXTT0=
EXTT1=
EXTT2=
EXTT3=
EXTT4=
EXTT5=
EXTT6=
EXTT7=
EXTT8=
EXTT9=
PLAYORDER=
